<?xml version="1.0" standalone="no"?><!DOCTYPE svg PUBLIC "-//W3C//DTD SVG 1.1//EN" "http://www.w3.org/Graphics/SVG/1.1/DTD/svg11.dtd"><svg t="1743077005679" class="icon" viewBox="0 0 5532 1024" version="1.1" xmlns="http://www.w3.org/2000/svg" p-id="7362" xmlns:xlink="http://www.w3.org/1999/xlink" width="540.234375" height="100"><path d="M2425.763586 824.995332h-79.72644v-123.7493h79.72644c49.569047 0 99.484731-12.132284 131.721944-46.449317 32.583849-34.663669 44.369497-87.352447 44.369497-139.694587 0-51.995504-11.785648-104.684282-44.369497-139.001315-32.237213-34.663669-82.152897-46.449317-131.721944-46.449317-49.569047 0-99.138095 12.132284-131.721944 46.449317-32.583849 34.317033-44.02286 86.659174-44.02286 139.001315v508.862667h-140.387861V205.902196h140.387861v51.995504h25.651116A110.230469 110.230469 0 0 1 2284.335815 249.231783c34.663669-32.237213 88.392357-43.329587 141.427771-43.329587 82.499533 0 165.69234 20.451565 219.767664 77.64662 53.728688 56.848418 73.486979 144.894138 73.486979 232.246585 0 86.659174-19.758292 174.358257-73.486979 231.553312-54.075324 57.195055-137.268131 77.64662-219.767664 77.646619zM292.908007 227.393671h79.726439v123.7493h-79.726439c-49.222411 0-99.138095 12.132284-131.721944 46.795954-32.237213 34.317033-44.02286 86.659174-44.02286 139.001314 0 51.995504 11.785648 105.030918 44.02286 139.347951 32.583849 33.970396 82.499533 46.795954 131.721944 46.795954 49.915684 0 99.484731-12.825558 131.721943-46.795954 32.930486-34.663669 44.369497-87.00581 44.369497-139.347951V28.424209h140.041225v818.062598h-140.041225v-51.995504H443.694969a55.461871 55.461871 0 0 1-8.665918 8.665917c-34.663669 31.890576-88.392357 43.676223-141.774408 43.676224-82.152897 0-165.345703-20.798202-219.421027-77.993256C19.411655 711.645133 0 623.94605 0 536.940239c0-87.00581 19.411655-174.704894 73.486979-232.246585C127.562303 248.191873 210.75511 227.740308 292.908007 227.740308z m1019.458517 298.800831v49.569047H939.385441v-99.484731h247.4986a175.744804 175.744804 0 0 0-41.94304-94.285181C1110.970605 346.636694 1059.321738 333.4645 1007.67287 333.4645c-51.302231 0-103.297735 13.172194-136.921494 48.529137-33.623759 35.356943-45.756044 90.12554-45.756044 144.200865 0 54.075324 12.132284 108.497285 45.756044 144.200865 33.623759 35.70358 85.619263 48.1825 136.921494 48.1825 51.648867 0 103.297735-12.478921 137.268131-48.529137a159.452879 159.452879 0 0 0 12.825558-15.945288h138.654677a262.750614 262.750614 0 0 1-60.661421 111.963652c-56.155144 59.274875-142.467681 80.76635-228.086945 80.76635-85.619263 0-171.9318-21.491475-228.086945-80.76635-56.501781-58.928238-76.260073-149.747052-76.260072-239.872592 0-90.12554 19.758292-180.944354 76.260072-240.219229 56.155144-58.928238 142.121045-80.073076 228.086945-80.073077 85.619263 0 171.9318 20.798202 228.086945 80.073077 56.501781 59.274875 76.606709 150.093689 76.606709 240.219229z m703.325853 0v49.569047H1642.364657v-99.484731h247.845237a173.664984 173.664984 0 0 0-42.289677-94.285181C1814.296458 346.636694 1762.64759 333.4645 1710.998723 333.4645c-51.302231 0-103.297735 13.172194-136.921495 48.529137-33.623759 35.356943-45.756044 90.12554-45.756043 144.200865 0 54.075324 12.132284 108.497285 45.756043 144.200865 33.623759 35.70358 85.619263 48.1825 136.921495 48.1825 51.648867 0 103.297735-12.478921 136.921494-48.529137a127.90894 127.90894 0 0 0 13.172194-15.945288h138.654678a266.216981 266.216981 0 0 1-60.661422 111.963652c-56.155144 59.274875-142.467681 80.76635-228.086944 80.76635-85.619263 0-171.9318-21.491475-228.433582-80.76635-55.808508-58.928238-76.260073-149.747052-76.260073-239.872592 0-90.12554 20.451565-180.944354 76.260073-240.219229 56.501781-58.928238 142.814318-80.073076 228.433582-80.073077 85.619263 0 171.9318 20.798202 228.086944 80.073077 56.155144 59.274875 76.260073 150.093689 76.260073 240.219229z m1102.304687 320.638942c85.272627 0 171.585164-12.825558 227.740309-47.489227a158.759606 158.759606 0 0 0 76.260072-142.121045 158.759606 158.759606 0 0 0-76.260072-141.427771c-56.155144-34.663669-142.121045-47.489227-228.086945-47.489227h3.11973a206.248833 206.248833 0 0 1-97.058274-18.371745 60.314785 60.314785 0 0 1-32.930486-55.115234c0-20.798202 8.665917-41.249767 32.583849-55.115235a210.408473 210.408473 0 0 1 97.058274-18.025108c36.74349 0 73.486979 4.852914 97.751548 18.025108 24.264569 13.865468 32.237213 34.663669 32.237213 55.461871h142.814318a164.65243 164.65243 0 0 0-69.327339-142.121044c-50.608957-34.663669-128.602214-47.14259-206.248833-47.142591-77.64662 0-155.293239 12.478921-206.248833 47.489227-50.955594 34.663669-69.327339 88.392357-69.327339 141.427772 0 53.382051 18.371745 106.764102 69.327339 142.121044 50.955594 34.663669 128.602214 47.14259 206.248833 47.142591 40.556493 0 84.232717 4.852914 110.923742 18.371745 26.691025 13.518831 36.050216 34.317033 36.050216 55.115234s-9.359191 41.596403-36.050216 54.768598a256.511154 256.511154 0 0 1-107.457375 18.718381 254.084697 254.084697 0 0 1-107.457375-18.718381c-26.691025-13.518831-36.396853-34.317033-36.396853-54.768598h-163.959157a159.452879 159.452879 0 0 0 76.260073 141.774408c56.155144 34.663669 142.121045 47.489227 228.086945 47.489227z m1007.326234-320.638942v49.569047h-372.981083v-99.484731h247.4986a173.318347 173.318347 0 0 0-42.289677-94.285181c-33.623759-35.356943-85.272627-48.529137-136.921494-48.529137-51.302231 0-102.951098 13.172194-136.921495 48.529137-33.623759 35.356943-45.756044 90.12554-45.756043 144.200865 0 54.075324 12.132284 108.497285 46.10268 144.200865 33.623759 35.70358 85.272627 48.1825 136.574858 48.1825 51.995504 0 103.297735-12.478921 136.921494-48.529137a127.215667 127.215667 0 0 0 13.172194-15.945288h138.654678a265.870344 265.870344 0 0 1-60.314785 111.963652c-56.501781 59.274875-142.814318 80.76635-228.433581 80.76635-85.619263 0-171.585164-21.491475-228.086945-80.76635-56.155144-58.928238-76.260073-149.747052-76.260073-239.872592 0-90.12554 20.104928-180.944354 76.260073-240.219229 56.501781-58.928238 142.467681-80.073076 228.086945-80.073077 85.619263 0 171.9318 20.798202 228.433581 80.073077 56.155144 59.274875 76.260073 150.093689 76.260073 240.219229z m703.672489 0v49.569047h-373.32772v-99.484731h247.845237a176.091441 176.091441 0 0 0-42.636314-94.285181C4627.599868 346.636694 4575.604364 333.4645 4524.64877 333.4645c-51.302231 0-103.297735 13.172194-136.921495 48.529137-33.970396 35.356943-46.10268 90.12554-46.10268 144.200865 0 54.075324 12.132284 108.497285 46.10268 144.200865 33.623759 35.70358 85.619263 48.1825 136.921495 48.1825 51.302231 0 102.951098-12.478921 136.921494-48.529137a165.345703 165.345703 0 0 0 12.825557-15.945288h138.654678a263.097251 263.097251 0 0 1-60.661421 111.963652c-56.155144 59.274875-142.121045 80.76635-227.740308 80.76635-85.619263 0-172.278437-21.491475-228.433582-80.76635-56.155144-58.928238-76.260073-149.747052-76.260073-239.872592 0-90.12554 20.104928-180.944354 76.260073-240.219229 56.155144-58.928238 142.814318-80.073076 228.433582-80.073077 85.619263 0 171.585164 20.798202 227.740308 80.073077 56.501781 59.274875 76.606709 150.093689 76.606709 240.219229zM4922.587695 0h140.041224v846.833444h-140.041224V0z m379.220543 506.782847l229.820128 339.70396h-173.664984l-229.820128-339.70396 229.820128-272.456442h173.664984l-229.820128 272.456442z" p-id="7363" fill="#4d6bfe"></path></svg>